<svg width="226" height="196" viewBox="0 0 226 196" fill="none" xmlns="http://www.w3.org/2000/svg">
<path d="M127.5 48C127.5 73.1046 106.93 93.5 81.5 93.5C56.0704 93.5 35.5 73.1046 35.5 48C35.5 22.8954 56.0704 2.5 81.5 2.5C106.93 2.5 127.5 22.8954 127.5 48Z" fill="white" stroke="black" stroke-width="5"/>
<path d="M160.5 146C160.5 158.611 152.158 170.429 137.822 179.224C123.527 187.994 103.62 193.5 81.5 193.5C59.3795 193.5 39.473 187.994 25.1781 179.224C10.8417 170.429 2.5 158.611 2.5 146C2.5 133.389 10.8417 121.571 25.1781 112.776C39.473 104.006 59.3795 98.5 81.5 98.5C103.62 98.5 123.527 104.006 137.822 112.776C152.158 121.571 160.5 133.389 160.5 146Z" fill="white" stroke="black" stroke-width="5"/>
<rect x="207.225" y="82.4426" width="29" height="95" transform="rotate(58.1644 207.225 82.4426)" fill="#FFFCFC" stroke="black" stroke-width="5"/>
<path d="M148.679 150.157L116.015 156.356L137.373 130.876L148.679 150.157Z" fill="#FFFEFE" stroke="black" stroke-width="5"/>
</svg>
